# 3ds Max Wavefront OBJ Exporter v0.97b - (c)2007 guruware
# File Created: 13.05.2021 22:57:11

mtllib Gravel.mtl

#
# object Gravel
#

v  -7.000003 -122.617004 0.000000
v  6.999997 -122.617004 0.000000
v  6.999997 -62.664612 0.000000
v  -7.000003 -62.664608 0.000000
v  11.499997 -122.617004 -2.000000
v  11.499997 -62.664612 -2.000000
v  9.748073 -62.664612 -0.832050
v  9.748073 -122.617004 -0.832050
v  -11.500003 117.192581 -2.000000
v  -11.500003 57.240185 -2.000000
v  -9.748079 57.240185 -0.832050
v  -9.748079 117.192581 -0.832050
v  7.493000 -122.617004 -0.023112
v  7.493000 -62.664612 -0.023112
v  -7.000003 117.192581 0.000000
v  -7.493005 117.192581 -0.023112
v  -7.493005 57.240185 -0.023112
v  -7.000003 57.240185 0.000000
v  7.972005 -122.617004 -0.092450
v  7.972005 -62.664612 -0.092450
v  8.437016 -122.617004 -0.208013
v  8.437016 -62.664612 -0.208013
v  8.888030 -122.617004 -0.369800
v  8.888030 -62.664612 -0.369800
v  9.325049 -122.617004 -0.577813
v  9.325049 -62.664612 -0.577813
v  -7.972012 117.192581 -0.092450
v  -7.972012 57.240185 -0.092450
v  -8.437022 117.192581 -0.208013
v  -8.437022 57.240185 -0.208013
v  -8.888037 117.192581 -0.369800
v  -8.888037 57.240185 -0.369800
v  -9.325056 117.192581 -0.577813
v  -9.325056 57.240185 -0.577813
v  6.999997 -2.712219 0.000000
v  6.999997 57.240181 0.000000
v  -7.000003 -2.712207 0.000000
v  11.499997 -2.712219 -2.000000
v  11.499997 57.240181 -2.000000
v  9.748073 57.240181 -0.832050
v  9.748073 -2.712219 -0.832050
v  -11.500003 -2.712207 -2.000000
v  -11.500003 -62.664608 -2.000000
v  -9.748079 -62.664608 -0.832050
v  -9.748079 -2.712207 -0.832050
v  7.493000 -2.712219 -0.023112
v  7.493000 57.240181 -0.023112
v  -7.493005 -2.712207 -0.023112
v  -7.493005 -62.664608 -0.023112
v  7.972005 -2.712219 -0.092450
v  7.972005 57.240181 -0.092450
v  8.437016 -2.712219 -0.208013
v  8.437016 57.240181 -0.208013
v  8.888030 -2.712219 -0.369800
v  8.888030 57.240181 -0.369800
v  9.325049 -2.712219 -0.577813
v  9.325049 57.240181 -0.577813
v  -7.972012 -2.712207 -0.092450
v  -7.972012 -62.664608 -0.092450
v  -8.437022 -2.712207 -0.208013
v  -8.437022 -62.664608 -0.208013
v  -8.888037 -2.712207 -0.369800
v  -8.888037 -62.664608 -0.369800
v  -9.325056 -2.712207 -0.577813
v  -9.325056 -62.664608 -0.577813
v  6.999997 117.192581 0.000000
v  11.499997 117.192581 -2.000000
v  9.748073 117.192581 -0.832050
v  -11.500003 -122.617004 -2.000000
v  -9.748079 -122.617004 -0.832050
v  7.493000 117.192581 -0.023112
v  -7.493005 -122.617004 -0.023112
v  7.972005 117.192581 -0.092450
v  8.437016 117.192581 -0.208013
v  8.888030 117.192581 -0.369800
v  9.325049 117.192581 -0.577813
v  -7.972012 -122.617004 -0.092450
v  -8.437022 -122.617004 -0.208013
v  -8.888037 -122.617004 -0.369800
v  -9.325056 -122.617004 -0.577813
# 80 vertices

vn -0.023421 0.000000 0.999726
vn 0.023421 0.000000 0.999726
vn 0.554700 0.000000 0.832050
vn 0.535060 0.000000 0.844814
vn -0.554700 0.000000 0.832050
vn -0.535060 0.000000 0.844814
vn 0.095156 0.000000 0.995462
vn -0.095156 0.000000 0.995462
vn 0.192460 0.000000 0.981305
vn 0.289784 0.000000 0.957092
vn 0.384194 0.000000 0.923252
vn 0.473008 0.000000 0.881058
vn -0.192460 0.000000 0.981305
vn -0.289784 0.000000 0.957092
vn -0.384194 0.000000 0.923252
vn -0.473008 0.000000 0.881058
# 16 vertex normals

vt 0.758324 0.343516 0.000000
vt 0.909173 0.343516 0.000000
vt 0.909173 0.989499 0.000000
vt 0.758324 0.989499 0.000000
vt 0.999500 0.344149 0.000000
vt 0.999500 0.990131 0.000000
vt 0.976813 0.990131 0.000000
vt 0.976813 0.344149 0.000000
vt 0.334245 0.989506 0.000000
vt 0.334245 0.343516 0.000000
vt 0.356932 0.343516 0.000000
vt 0.356932 0.989506 0.000000
vt 0.920446 0.343620 0.000000
vt 0.920446 0.989603 0.000000
vt 0.424574 0.990133 0.000000
vt 0.413300 0.990030 0.000000
vt 0.413300 0.344044 0.000000
vt 0.424573 0.344148 0.000000
vt 0.931720 0.343726 0.000000
vt 0.931720 0.989708 0.000000
vt 0.942993 0.343832 0.000000
vt 0.942993 0.989815 0.000000
vt 0.954266 0.343939 0.000000
vt 0.954266 0.989921 0.000000
vt 0.965540 0.344045 0.000000
vt 0.965540 0.990027 0.000000
vt 0.402027 0.989925 0.000000
vt 0.402026 0.343938 0.000000
vt 0.390753 0.989819 0.000000
vt 0.390753 0.343832 0.000000
vt 0.379480 0.989713 0.000000
vt 0.379479 0.343725 0.000000
vt 0.368206 0.989609 0.000000
vt 0.368206 0.343620 0.000000
vt 0.334706 0.090832 0.000000
vt 0.980689 0.090832 0.000000
vt 0.980690 0.241682 0.000000
vt 0.334706 0.241682 0.000000
vt 0.334245 0.000500 0.000000
vt 0.980224 0.000500 0.000000
vt 0.980224 0.023187 0.000000
vt 0.334245 0.023187 0.000000
vt 0.000500 0.652049 0.000000
vt 0.000501 0.006060 0.000000
vt 0.023188 0.006060 0.000000
vt 0.023187 0.652049 0.000000
vt 0.334630 0.079558 0.000000
vt 0.980612 0.079558 0.000000
vt 0.079561 0.651658 0.000000
vt 0.079561 0.005673 0.000000
vt 0.090835 0.005596 0.000000
vt 0.090835 0.651581 0.000000
vt 0.334553 0.068284 0.000000
vt 0.980534 0.068284 0.000000
vt 0.334476 0.057010 0.000000
vt 0.980456 0.057010 0.000000
vt 0.334399 0.045735 0.000000
vt 0.980378 0.045735 0.000000
vt 0.334322 0.034461 0.000000
vt 0.980301 0.034461 0.000000
vt 0.068286 0.651737 0.000000
vt 0.068286 0.005750 0.000000
vt 0.057012 0.651816 0.000000
vt 0.057012 0.005828 0.000000
vt 0.045737 0.651895 0.000000
vt 0.045737 0.005906 0.000000
vt 0.034462 0.651973 0.000000
vt 0.034463 0.005983 0.000000
vt 0.241685 0.005596 0.000000
vt 0.241685 0.651579 0.000000
vt 0.332017 0.005135 0.000000
vt 0.332017 0.651115 0.000000
vt 0.309330 0.651114 0.000000
vt 0.309330 0.005135 0.000000
vt 0.981158 0.332015 0.000000
vt 0.335168 0.332016 0.000000
vt 0.335168 0.309328 0.000000
vt 0.981158 0.309328 0.000000
vt 0.252959 0.005520 0.000000
vt 0.252959 0.651502 0.000000
vt 0.980768 0.252956 0.000000
vt 0.334782 0.252956 0.000000
vt 0.264233 0.005443 0.000000
vt 0.264233 0.651425 0.000000
vt 0.275508 0.005366 0.000000
vt 0.275508 0.651347 0.000000
vt 0.286782 0.005289 0.000000
vt 0.286782 0.651268 0.000000
vt 0.298056 0.005212 0.000000
vt 0.298056 0.651191 0.000000
vt 0.980847 0.264230 0.000000
vt 0.334859 0.264231 0.000000
vt 0.980925 0.275505 0.000000
vt 0.334937 0.275505 0.000000
vt 0.981004 0.286779 0.000000
vt 0.335014 0.286779 0.000000
vt 0.981081 0.298053 0.000000
vt 0.335092 0.298054 0.000000
vt 0.575423 0.344148 0.000000
vt 0.575423 0.990133 0.000000
vt 0.665756 0.343688 0.000000
vt 0.665756 0.989668 0.000000
vt 0.643069 0.989667 0.000000
vt 0.643069 0.343687 0.000000
vt 0.667990 0.989967 0.000000
vt 0.667990 0.343978 0.000000
vt 0.690677 0.343978 0.000000
vt 0.690678 0.989967 0.000000
vt 0.586697 0.344072 0.000000
vt 0.586698 0.990055 0.000000
vt 0.747049 0.989577 0.000000
vt 0.747049 0.343592 0.000000
vt 0.597972 0.343996 0.000000
vt 0.597972 0.989978 0.000000
vt 0.609246 0.343918 0.000000
vt 0.609246 0.989900 0.000000
vt 0.620520 0.343841 0.000000
vt 0.620521 0.989822 0.000000
vt 0.631794 0.343764 0.000000
vt 0.631795 0.989744 0.000000
vt 0.735775 0.989655 0.000000
vt 0.735775 0.343669 0.000000
vt 0.724501 0.989734 0.000000
vt 0.724500 0.343747 0.000000
vt 0.713226 0.989812 0.000000
vt 0.713226 0.343824 0.000000
vt 0.701952 0.989890 0.000000
vt 0.701951 0.343902 0.000000
# 128 texture coords

o Gravel
g Gravel
usemtl wire_115115115
s 1
f 1/1/1 2/2/2 3/3/2 4/4/1 
f 5/5/3 6/6/3 7/7/4 8/8/4 
f 9/9/5 10/10/5 11/11/6 12/12/6 
f 2/2/2 13/13/7 14/14/7 3/3/2 
f 15/15/1 16/16/8 17/17/8 18/18/1 
f 13/13/7 19/19/9 20/20/9 14/14/7 
f 19/19/9 21/21/10 22/22/10 20/20/9 
f 21/21/10 23/23/11 24/24/11 22/22/10 
f 23/23/11 25/25/12 26/26/12 24/24/11 
f 25/25/12 8/8/4 7/7/4 26/26/12 
f 16/16/8 27/27/13 28/28/13 17/17/8 
f 27/27/13 29/29/14 30/30/14 28/28/13 
f 29/29/14 31/31/15 32/32/15 30/30/14 
f 31/31/15 33/33/16 34/34/16 32/32/15 
f 33/33/16 12/12/6 11/11/6 34/34/16 
f 35/35/2 36/36/2 18/37/1 37/38/1 
f 38/39/3 39/40/3 40/41/4 41/42/4 
f 42/43/5 43/44/5 44/45/6 45/46/6 
f 46/47/7 47/48/7 36/36/2 35/35/2 
f 48/49/8 49/50/8 4/51/1 37/52/1 
f 50/53/9 51/54/9 47/48/7 46/47/7 
f 52/55/10 53/56/10 51/54/9 50/53/9 
f 54/57/11 55/58/11 53/56/10 52/55/10 
f 56/59/12 57/60/12 55/58/11 54/57/11 
f 41/42/4 40/41/4 57/60/12 56/59/12 
f 58/61/13 59/62/13 49/50/8 48/49/8 
f 60/63/14 61/64/14 59/62/13 58/61/13 
f 62/65/15 63/66/15 61/64/14 60/63/14 
f 64/67/16 65/68/16 63/66/15 62/65/15 
f 45/46/6 44/45/6 65/68/16 64/67/16 
f 3/69/2 35/70/2 37/52/1 4/51/1 
f 6/71/3 38/72/3 41/73/4 7/74/4 
f 10/75/5 42/76/5 45/77/6 11/78/6 
f 14/79/7 46/80/7 35/70/2 3/69/2 
f 17/81/8 48/82/8 37/38/1 18/37/1 
f 20/83/9 50/84/9 46/80/7 14/79/7 
f 22/85/10 52/86/10 50/84/9 20/83/9 
f 24/87/11 54/88/11 52/86/10 22/85/10 
f 26/89/12 56/90/12 54/88/11 24/87/11 
f 7/74/4 41/73/4 56/90/12 26/89/12 
f 28/91/13 58/92/13 48/82/8 17/81/8 
f 30/93/14 60/94/14 58/92/13 28/91/13 
f 32/95/15 62/96/15 60/94/14 30/93/14 
f 34/97/16 64/98/16 62/96/15 32/95/15 
f 11/78/6 45/77/6 64/98/16 34/97/16 
f 36/99/2 66/100/2 15/15/1 18/18/1 
f 39/101/3 67/102/3 68/103/4 40/104/4 
f 43/105/5 69/106/5 70/107/6 44/108/6 
f 47/109/7 71/110/7 66/100/2 36/99/2 
f 49/111/8 72/112/8 1/1/1 4/4/1 
f 51/113/9 73/114/9 71/110/7 47/109/7 
f 53/115/10 74/116/10 73/114/9 51/113/9 
f 55/117/11 75/118/11 74/116/10 53/115/10 
f 57/119/12 76/120/12 75/118/11 55/117/11 
f 40/104/4 68/103/4 76/120/12 57/119/12 
f 59/121/13 77/122/13 72/112/8 49/111/8 
f 61/123/14 78/124/14 77/122/13 59/121/13 
f 63/125/15 79/126/15 78/124/14 61/123/14 
f 65/127/16 80/128/16 79/126/15 63/125/15 
f 44/108/6 70/107/6 80/128/16 65/127/16 
# 60 polygons

