# 3ds Max Wavefront OBJ Exporter v0.97b - (c)2007 guruware
# File Created: 02.06.2021 13:44:37

mtllib Ground.mtl

#
# object Box001
#

v  -11.815145 -13.685404 0.000000
v  -11.815145 11.314597 0.000000
v  13.184855 11.314597 0.000000
v  13.184855 -13.685404 0.000000
v  -5.315145 -7.185403 5.000000
v  6.684856 -7.185403 5.000000
v  6.684856 4.814597 5.000000
v  -5.315145 4.814597 5.000000
v  11.662580 -12.163127 0.905330
v  -10.292869 -12.163127 0.905330
v  11.662580 9.792320 0.905330
v  -10.292869 9.792320 0.905330
v  9.932483 -10.433031 2.544098
v  8.937228 -9.437777 3.942706
v  -7.567517 -9.437777 3.942706
v  -8.562772 -10.433031 2.544098
v  9.932483 8.062224 2.544098
v  8.937228 7.066969 3.942706
v  -8.562772 8.062224 2.544098
v  -7.567517 7.066969 3.942706
v  -5.794378 -7.664636 4.970631
v  7.164089 -7.664636 4.970631
v  7.164089 5.293829 4.970631
v  -5.794378 5.293829 4.970631
v  11.342931 -11.843479 1.112372
v  -9.973221 -11.843479 1.112372
v  11.342931 9.472672 1.112372
v  -9.973221 9.472672 1.112372
v  -6.232075 -8.102334 4.882523
v  7.601785 -8.102334 4.882523
v  -6.628238 -8.498497 4.735677
v  7.997949 -8.498497 4.735677
v  -6.982866 -8.853126 4.530092
v  8.352577 -8.853126 4.530092
v  -7.295959 -9.166218 4.265769
v  8.665669 -9.166218 4.265769
v  7.601785 5.731527 4.882523
v  7.997949 6.127690 4.735677
v  8.352577 6.482318 4.530092
v  8.665669 6.795411 4.265769
v  -6.232075 5.731527 4.882523
v  -6.628238 6.127690 4.735677
v  -6.982866 6.482318 4.530092
v  -7.295959 6.795411 4.265769
v  11.035802 -11.536350 1.345849
v  -9.666092 -11.536350 1.345849
v  10.741193 -11.241741 1.605759
v  -9.371483 -11.241741 1.605759
v  10.459104 -10.959651 1.892104
v  -9.089393 -10.959651 1.892104
v  10.189532 -10.690082 2.204884
v  -8.819823 -10.690082 2.204884
v  11.035802 9.165544 1.345849
v  10.741193 8.870934 1.605759
v  10.459104 8.588844 1.892104
v  10.189532 8.319274 2.204884
v  -9.666092 9.165544 1.345849
v  -9.371483 8.870934 1.605759
v  -9.089393 8.588844 1.892104
v  -8.819823 8.319274 2.204884
# 60 vertices

vn 0.000000 0.000000 -1.000000
vn -0.022956 -0.022956 0.999473
vn 0.022956 -0.022956 0.999473
vn 0.022956 0.022956 0.999473
vn -0.022956 0.022956 0.999473
vn -0.274109 -0.274109 0.921807
vn 0.274109 -0.274109 0.921807
vn 0.279723 -0.279723 0.918428
vn -0.279723 -0.279723 0.918428
vn 0.274109 0.274109 0.921807
vn 0.279723 0.279723 0.918428
vn -0.274109 0.274109 0.921807
vn -0.279723 0.279723 0.918428
vn 0.487724 -0.487724 0.724052
vn 0.484561 -0.484561 0.728287
vn -0.484561 -0.484561 0.728287
vn -0.487724 -0.487724 0.724052
vn 0.487724 0.487724 0.724052
vn 0.484561 0.484561 0.728287
vn -0.487724 0.487724 0.724052
vn -0.484561 0.484561 0.728287
vn -0.082276 -0.082276 0.993208
vn 0.082276 -0.082276 0.993208
vn 0.082276 0.082276 0.993208
vn -0.082276 0.082276 0.993208
vn 0.305842 -0.305842 0.901622
vn -0.305842 -0.305842 0.901622
vn 0.305842 0.305842 0.901622
vn -0.305842 0.305842 0.901622
vn -0.158853 -0.158853 0.974439
vn 0.158853 -0.158853 0.974439
vn -0.244558 -0.244558 0.938287
vn 0.244558 -0.244558 0.938287
vn -0.336033 -0.336033 0.879866
vn 0.336033 -0.336033 0.879866
vn -0.427440 -0.427440 0.796611
vn 0.427440 -0.427440 0.796611
vn 0.158853 0.158853 0.974439
vn 0.244558 0.244558 0.938287
vn 0.336033 0.336033 0.879866
vn 0.427440 0.427440 0.796611
vn -0.158853 0.158853 0.974439
vn -0.244558 0.244558 0.938287
vn -0.336033 0.336033 0.879866
vn -0.427440 0.427440 0.796611
vn 0.346302 -0.346302 0.871866
vn -0.346302 -0.346302 0.871866
vn 0.385748 -0.385748 0.838091
vn -0.385748 -0.385748 0.838091
vn 0.423645 -0.423645 0.800656
vn -0.423645 -0.423645 0.800656
vn 0.459515 -0.459515 0.760060
vn -0.459515 -0.459515 0.760060
vn 0.346302 0.346302 0.871866
vn 0.385748 0.385748 0.838091
vn 0.423645 0.423645 0.800656
vn 0.459515 0.459515 0.760060
vn -0.346302 0.346302 0.871866
vn -0.385748 0.385748 0.838091
vn -0.423645 0.423645 0.800656
vn -0.459515 0.459515 0.760060
# 61 vertex normals

vt 0.563940 0.000500 0.000000
vt 0.563940 0.563940 0.000000
vt 0.000500 0.563940 0.000000
vt 0.000500 0.000500 0.000000
vt 0.000500 0.567636 0.000000
vt 0.270951 0.567636 0.000000
vt 0.270951 0.838087 0.000000
vt 0.000500 0.838087 0.000000
vt 0.576710 0.999500 0.000000
vt 0.576710 0.436060 0.000000
vt 0.616627 0.470369 0.000000
vt 0.616627 0.965191 0.000000
vt 0.990114 0.000500 0.000000
vt 0.990114 0.563940 0.000000
vt 0.950196 0.529632 0.000000
vt 0.950196 0.034808 0.000000
vt 0.799027 0.990426 0.000000
vt 0.799027 0.426986 0.000000
vt 0.838944 0.461294 0.000000
vt 0.838944 0.956117 0.000000
vt 0.758728 0.000500 0.000000
vt 0.758728 0.563940 0.000000
vt 0.718810 0.529631 0.000000
vt 0.718810 0.034808 0.000000
vt 0.670721 0.509361 0.000000
vt 0.709410 0.531791 0.000000
vt 0.709410 0.903769 0.000000
vt 0.670721 0.926199 0.000000
vt 0.896106 0.490639 0.000000
vt 0.857418 0.468209 0.000000
vt 0.857418 0.096231 0.000000
vt 0.896106 0.073801 0.000000
vt 0.893036 0.500286 0.000000
vt 0.931724 0.522717 0.000000
vt 0.931724 0.894695 0.000000
vt 0.893036 0.917125 0.000000
vt 0.664717 0.490639 0.000000
vt 0.626029 0.468209 0.000000
vt 0.626029 0.096231 0.000000
vt 0.664717 0.073801 0.000000
vt 0.767804 0.853005 0.000000
vt 0.756983 0.863806 0.000000
vt 0.756983 0.571753 0.000000
vt 0.767804 0.582554 0.000000
vt 0.799027 0.146994 0.000000
vt 0.809848 0.136194 0.000000
vt 0.809848 0.428246 0.000000
vt 0.799027 0.417446 0.000000
vt 0.990116 0.843931 0.000000
vt 0.979295 0.854732 0.000000
vt 0.979295 0.562680 0.000000
vt 0.990116 0.573480 0.000000
vt 0.567636 0.146994 0.000000
vt 0.578457 0.136194 0.000000
vt 0.578457 0.428246 0.000000
vt 0.567636 0.417446 0.000000
vt 0.625211 0.477573 0.000000
vt 0.625211 0.957987 0.000000
vt 0.941613 0.522428 0.000000
vt 0.941613 0.042013 0.000000
vt 0.847528 0.468498 0.000000
vt 0.847528 0.948913 0.000000
vt 0.710227 0.522427 0.000000
vt 0.710227 0.042013 0.000000
vt 0.746920 0.873671 0.000000
vt 0.746920 0.561889 0.000000
vt 0.737397 0.882599 0.000000
vt 0.737397 0.552960 0.000000
vt 0.728158 0.890592 0.000000
vt 0.728158 0.544968 0.000000
vt 0.718922 0.897648 0.000000
vt 0.718922 0.537912 0.000000
vt 0.819911 0.126329 0.000000
vt 0.819911 0.438111 0.000000
vt 0.829433 0.117400 0.000000
vt 0.829433 0.447040 0.000000
vt 0.838672 0.109408 0.000000
vt 0.838672 0.455032 0.000000
vt 0.847906 0.102352 0.000000
vt 0.847906 0.462088 0.000000
vt 0.969233 0.864597 0.000000
vt 0.969233 0.552815 0.000000
vt 0.959710 0.873525 0.000000
vt 0.959710 0.543886 0.000000
vt 0.950471 0.881518 0.000000
vt 0.950471 0.535894 0.000000
vt 0.941236 0.888574 0.000000
vt 0.941236 0.528837 0.000000
vt 0.588520 0.126329 0.000000
vt 0.588520 0.438111 0.000000
vt 0.598042 0.117400 0.000000
vt 0.598042 0.447039 0.000000
vt 0.607281 0.109408 0.000000
vt 0.607281 0.455032 0.000000
vt 0.616516 0.102351 0.000000
vt 0.616516 0.462088 0.000000
vt 0.633906 0.484495 0.000000
vt 0.633906 0.951065 0.000000
vt 0.642761 0.491134 0.000000
vt 0.642761 0.944426 0.000000
vt 0.651821 0.497492 0.000000
vt 0.651821 0.938068 0.000000
vt 0.661128 0.503567 0.000000
vt 0.661128 0.931993 0.000000
vt 0.932918 0.515506 0.000000
vt 0.932918 0.048935 0.000000
vt 0.924064 0.508866 0.000000
vt 0.924064 0.055574 0.000000
vt 0.915004 0.502508 0.000000
vt 0.915004 0.061932 0.000000
vt 0.905698 0.496433 0.000000
vt 0.905698 0.068007 0.000000
vt 0.856223 0.475420 0.000000
vt 0.856223 0.941991 0.000000
vt 0.865077 0.482060 0.000000
vt 0.865077 0.935352 0.000000
vt 0.874137 0.488418 0.000000
vt 0.874137 0.928994 0.000000
vt 0.883443 0.494493 0.000000
vt 0.883443 0.922918 0.000000
vt 0.701532 0.515505 0.000000
vt 0.701532 0.048935 0.000000
vt 0.692677 0.508866 0.000000
vt 0.692677 0.055574 0.000000
vt 0.683617 0.502508 0.000000
vt 0.683617 0.061932 0.000000
vt 0.674310 0.496432 0.000000
vt 0.674310 0.068007 0.000000
# 128 texture coords

o Box001
g Box001
usemtl wire_115115115
s 1
f 1/1/1 2/2/1 3/3/1 4/4/1 
s 2
f 5/5/2 6/6/3 7/7/4 8/8/5 
f 1/9/6 4/10/7 9/11/8 10/12/9 
f 4/13/7 3/14/10 11/15/11 9/16/8 
f 3/17/10 2/18/12 12/19/13 11/20/11 
f 2/21/12 1/22/6 10/23/9 12/24/13 
f 13/25/14 14/26/15 15/27/16 16/28/17 
f 17/29/18 18/30/19 14/31/15 13/32/14 
f 19/33/20 20/34/21 18/35/19 17/36/18 
f 16/37/17 15/38/16 20/39/21 19/40/20 
f 5/41/2 21/42/22 22/43/23 6/44/3 
f 6/45/3 22/46/23 23/47/24 7/48/4 
f 7/49/4 23/50/24 24/51/25 8/52/5 
f 8/53/5 24/54/25 21/55/22 5/56/2 
f 9/11/8 25/57/26 26/58/27 10/12/9 
f 11/15/11 27/59/28 25/60/26 9/16/8 
f 12/19/13 28/61/29 27/62/28 11/20/11 
f 10/23/9 26/63/27 28/64/29 12/24/13 
f 21/42/22 29/65/30 30/66/31 22/43/23 
f 29/65/30 31/67/32 32/68/33 30/66/31 
f 31/67/32 33/69/34 34/70/35 32/68/33 
f 33/69/34 35/71/36 36/72/37 34/70/35 
f 35/71/36 15/27/16 14/26/15 36/72/37 
f 22/46/23 30/73/31 37/74/38 23/47/24 
f 30/73/31 32/75/33 38/76/39 37/74/38 
f 32/75/33 34/77/35 39/78/40 38/76/39 
f 34/77/35 36/79/37 40/80/41 39/78/40 
f 36/79/37 14/31/15 18/30/19 40/80/41 
f 23/50/24 37/81/38 41/82/42 24/51/25 
f 37/81/38 38/83/39 42/84/43 41/82/42 
f 38/83/39 39/85/40 43/86/44 42/84/43 
f 39/85/40 40/87/41 44/88/45 43/86/44 
f 40/87/41 18/35/19 20/34/21 44/88/45 
f 24/54/25 41/89/42 29/90/30 21/55/22 
f 41/89/42 42/91/43 31/92/32 29/90/30 
f 42/91/43 43/93/44 33/94/34 31/92/32 
f 43/93/44 44/95/45 35/96/36 33/94/34 
f 44/95/45 20/39/21 15/38/16 35/96/36 
f 25/57/26 45/97/46 46/98/47 26/58/27 
f 45/97/46 47/99/48 48/100/49 46/98/47 
f 47/99/48 49/101/50 50/102/51 48/100/49 
f 49/101/50 51/103/52 52/104/53 50/102/51 
f 51/103/52 13/25/14 16/28/17 52/104/53 
f 27/59/28 53/105/54 45/106/46 25/60/26 
f 53/105/54 54/107/55 47/108/48 45/106/46 
f 54/107/55 55/109/56 49/110/50 47/108/48 
f 55/109/56 56/111/57 51/112/52 49/110/50 
f 56/111/57 17/29/18 13/32/14 51/112/52 
f 28/61/29 57/113/58 53/114/54 27/62/28 
f 57/113/58 58/115/59 54/116/55 53/114/54 
f 58/115/59 59/117/60 55/118/56 54/116/55 
f 59/117/60 60/119/61 56/120/57 55/118/56 
f 60/119/61 19/33/20 17/36/18 56/120/57 
f 26/63/27 46/121/47 57/122/58 28/64/29 
f 46/121/47 48/123/49 58/124/59 57/122/58 
f 48/123/49 50/125/51 59/126/60 58/124/59 
f 50/125/51 52/127/53 60/128/61 59/126/60 
f 52/127/53 16/37/17 19/40/20 60/128/61 
# 58 polygons

